<?xml version="1.0" encoding="UTF-8" standalone="no"?>
<!DOCTYPE svg PUBLIC "-//W3C//DTD SVG 1.1//EN" "http://www.w3.org/Graphics/SVG/1.1/DTD/svg11.dtd">
<svg xmlns="http://www.w3.org/2000/svg" version="1.1" viewBox="0.00 0.00 1000.00 356.00">
<path fill="#000000" d="
  M 125.35 356.00
  L 116.80 356.00
  C 107.86 355.71 96.04 355.19 86.77 353.25
  Q 80.64 351.97 73.81 350.00
  Q 56.93 345.13 42.85 335.64
  Q 36.94 331.66 31.71 326.45
  Q 25.76 320.52 21.70 315.76
  C 14.87 307.78 8.98 297.61 5.62 286.64
  Q 2.69 277.06 1.87 272.93
  Q 0.35 265.18 0.00 253.36
  L 0.00 244.80
  C 0.67 239.10 0.97 233.03 1.83 227.77
  Q 5.44 205.70 13.33 184.81
  Q 25.78 151.86 45.33 121.57
  Q 54.76 106.97 59.22 100.97
  Q 83.44 68.41 102.61 46.59
  Q 115.31 32.14 144.21 0.39
  A 0.09 0.09 0.0 0 1 144.36 0.49
  C 138.93 9.86 133.52 19.16 128.77 29.47
  Q 118.06 52.77 112.37 73.30
  Q 105.72 97.30 106.41 120.99
  Q 106.85 135.83 112.37 150.96
  Q 118.45 167.63 131.56 180.98
  Q 141.89 191.49 154.51 197.20
  C 157.03 198.34 162.19 200.71 166.10 201.83
  Q 179.98 205.77 190.00 206.75
  C 200.43 207.77 214.20 207.95 226.32 206.79
  Q 242.39 205.25 254.75 203.02
  Q 263.94 201.36 282.65 196.40
  Q 559.52 122.95 997.91 6.58
  A 0.32 0.17 -21.9 0 1 998.16 6.61
  Q 998.19 6.64 998.21 6.66
  A 0.08 0.06 -22.8 0 1 998.16 6.75
  Q 482.94 227.10 298.40 305.93
  Q 280.26 313.68 252.10 325.05
  Q 225.13 335.95 197.12 343.85
  Q 161.90 353.78 125.35 356.00
  Z"
/>
</svg>
